#N canvas 0 22 1440 799 10;
#X obj 1168 565 dac~;
#X obj 307 19 bng 15 250 50 0 empty empty empty 17 7 0 10 -262144 -1
-1;
#X obj 326 18 openpanel;
#X obj 307 182 readsf~;
#X obj 378 222 *~ 0.1;
#X obj 423 216 vsl 15 30 0 1 0 0 empty empty empty 0 -9 0 10 -257985
-1 -1 2100 1;
#X obj 1172 513 +~;
#X msg 207 97 stop;
#X obj 307 94 symbol;
#X obj 242 78 bng 15 250 50 0 empty empty empty 17 7 0 10 -262144 -1
-1;
#X msg 307 139 open \$1 \, start;
#X obj 545 17 bng 15 250 50 0 empty empty empty 17 7 0 10 -262144 -1
-1;
#X obj 564 16 openpanel;
#X obj 545 180 readsf~;
#X obj 616 220 *~ 0.1;
#X obj 662 214 vsl 15 30 0 1 0 0 empty empty empty 0 -9 0 10 -257985
-1 -1 2400 1;
#X msg 448 95 stop;
#X obj 545 92 symbol;
#X obj 480 76 bng 15 250 50 0 empty empty empty 17 7 0 10 -262144 -1
-1;
#X msg 545 137 open \$1 \, start;
#X obj 40 15 bng 15 250 50 0 empty empty empty 17 7 0 10 -262144 -1
-1;
#X obj 60 15 openpanel;
#X obj 40 178 readsf~;
#X obj 111 218 *~ 0.1;
#X obj 160 218 vsl 15 30 0 1 0 0 empty empty empty 0 -9 0 10 -257985
-1 -1 1900 1;
#X msg -59 94 stop;
#X obj 40 90 symbol;
#X obj -25 74 bng 15 250 50 0 empty empty empty 17 7 0 10 -262144 -1
-1;
#X msg 40 135 open \$1 \, start;
#X obj 798 17 bng 15 250 50 0 empty empty empty 17 7 0 10 -262144 -1
-1;
#X obj 817 16 openpanel;
#X obj 798 180 readsf~;
#X obj 869 220 *~ 0.1;
#X obj 915 213 vsl 15 30 0 1 0 0 empty empty empty 0 -9 0 10 -257985
-1 -1 2100 1;
#X msg 700 94 stop;
#X obj 798 92 symbol;
#X obj 733 76 bng 15 250 50 0 empty empty empty 17 7 0 10 -262144 -1
-1;
#X msg 798 137 open \$1 \, start;
#X obj -120 16 bng 15 250 50 0 empty empty empty 17 7 0 10 -262144
-1 -1;
#X obj 1301 24 bng 15 250 50 0 empty empty empty 17 7 0 10 -262144
-1 -1;
#X obj 1320 23 openpanel;
#X obj 1301 187 readsf~;
#X obj 1372 227 *~ 0.1;
#X obj 1417 221 vsl 15 30 0 1 0 0 empty empty empty 0 -9 0 10 -257985
-1 -1 2700 1;
#X msg 1201 102 stop;
#X obj 1301 99 symbol;
#X obj 1236 83 bng 15 250 50 0 empty empty empty 17 7 0 10 -262144
-1 -1;
#X msg 1301 144 open \$1 \, start;
#X obj 1539 22 bng 15 250 50 0 empty empty empty 17 7 0 10 -262144
-1 -1;
#X obj 1558 21 openpanel;
#X obj 1539 185 readsf~;
#X obj 1610 225 *~ 0.1;
#X obj 1656 219 vsl 15 30 0 1 0 0 empty empty empty 0 -9 0 10 -257985
-1 -1 2300 1;
#X msg 1442 100 stop;
#X obj 1539 97 symbol;
#X obj 1474 81 bng 15 250 50 0 empty empty empty 17 7 0 10 -262144
-1 -1;
#X msg 1539 142 open \$1 \, start;
#X obj 1034 20 bng 15 250 50 0 empty empty empty 17 7 0 10 -262144
-1 -1;
#X obj 1054 20 openpanel;
#X obj 1034 183 readsf~;
#X obj 1105 223 *~ 0.1;
#X obj 1154 216 vsl 15 30 0 1 0 0 empty empty empty 0 -9 0 10 -257985
-1 -1 2100 1;
#X msg 935 99 stop;
#X obj 1034 95 symbol;
#X obj 969 79 bng 15 250 50 0 empty empty empty 17 7 0 10 -262144 -1
-1;
#X msg 1034 140 open \$1 \, start;
#X obj 1792 22 bng 15 250 50 0 empty empty empty 17 7 0 10 -262144
-1 -1;
#X obj 1811 21 openpanel;
#X obj 1792 185 readsf~;
#X obj 1863 225 *~ 0.1;
#X obj 1909 218 vsl 15 30 0 1 0 0 empty empty empty 0 -9 0 10 -257985
-1 -1 2200 1;
#X msg 1694 99 stop;
#X obj 1792 97 symbol;
#X obj 1727 81 bng 15 250 50 0 empty empty empty 17 7 0 10 -262144
-1 -1;
#X msg 1792 142 open \$1 \, start;
#X obj 750 27 bng 15 250 50 0 empty empty empty 17 7 0 10 -262144 -1
-1;
#X obj 2048 23 bng 15 250 50 0 empty empty empty 17 7 0 10 -262144
-1 -1;
#X obj 2067 22 openpanel;
#X obj 2048 186 readsf~;
#X obj 2119 226 *~ 0.1;
#X obj 2165 219 vsl 15 30 0 1 0 0 empty empty empty 0 -9 0 10 -257985
-1 -1 2000 1;
#X msg 1950 100 stop;
#X obj 2048 98 symbol;
#X obj 1983 82 bng 15 250 50 0 empty empty empty 17 7 0 10 -262144
-1 -1;
#X msg 2048 143 open \$1 \, start;
#X text -119 43 sync and refresh start;
#X connect 1 0 2 0;
#X connect 2 0 8 0;
#X connect 3 0 4 0;
#X connect 3 1 9 0;
#X connect 4 0 6 0;
#X connect 4 0 6 1;
#X connect 5 0 4 1;
#X connect 6 0 0 0;
#X connect 6 0 0 1;
#X connect 7 0 3 0;
#X connect 8 0 10 0;
#X connect 9 0 8 0;
#X connect 10 0 3 0;
#X connect 11 0 12 0;
#X connect 12 0 17 0;
#X connect 13 0 14 0;
#X connect 13 1 18 0;
#X connect 14 0 6 0;
#X connect 14 0 6 1;
#X connect 15 0 14 1;
#X connect 16 0 13 0;
#X connect 17 0 19 0;
#X connect 18 0 17 0;
#X connect 19 0 13 0;
#X connect 20 0 21 0;
#X connect 21 0 26 0;
#X connect 22 0 23 0;
#X connect 22 1 27 0;
#X connect 23 0 6 0;
#X connect 23 0 6 1;
#X connect 24 0 23 1;
#X connect 25 0 22 0;
#X connect 26 0 28 0;
#X connect 27 0 26 0;
#X connect 28 0 22 0;
#X connect 29 0 30 0;
#X connect 30 0 35 0;
#X connect 31 0 32 0;
#X connect 31 1 36 0;
#X connect 32 0 6 0;
#X connect 32 0 6 1;
#X connect 33 0 32 1;
#X connect 34 0 31 0;
#X connect 35 0 37 0;
#X connect 36 0 35 0;
#X connect 37 0 31 0;
#X connect 38 0 27 0;
#X connect 38 0 9 0;
#X connect 38 0 18 0;
#X connect 38 0 36 0;
#X connect 38 0 75 0;
#X connect 39 0 40 0;
#X connect 40 0 45 0;
#X connect 41 0 42 0;
#X connect 41 1 46 0;
#X connect 42 0 6 0;
#X connect 42 0 6 1;
#X connect 43 0 42 1;
#X connect 44 0 41 0;
#X connect 45 0 47 0;
#X connect 46 0 45 0;
#X connect 47 0 41 0;
#X connect 48 0 49 0;
#X connect 49 0 54 0;
#X connect 50 0 51 0;
#X connect 50 1 55 0;
#X connect 51 0 6 0;
#X connect 51 0 6 1;
#X connect 52 0 51 1;
#X connect 53 0 50 0;
#X connect 54 0 56 0;
#X connect 55 0 54 0;
#X connect 56 0 50 0;
#X connect 57 0 58 0;
#X connect 58 0 63 0;
#X connect 59 0 60 0;
#X connect 59 1 64 0;
#X connect 60 0 6 0;
#X connect 60 0 6 1;
#X connect 61 0 60 1;
#X connect 62 0 59 0;
#X connect 63 0 65 0;
#X connect 64 0 63 0;
#X connect 65 0 59 0;
#X connect 66 0 67 0;
#X connect 67 0 72 0;
#X connect 68 0 69 0;
#X connect 68 1 73 0;
#X connect 69 0 6 0;
#X connect 69 0 6 1;
#X connect 70 0 69 1;
#X connect 71 0 68 0;
#X connect 72 0 74 0;
#X connect 73 0 72 0;
#X connect 74 0 68 0;
#X connect 75 0 64 0;
#X connect 75 0 46 0;
#X connect 75 0 55 0;
#X connect 75 0 73 0;
#X connect 75 0 83 0;
#X connect 76 0 77 0;
#X connect 77 0 82 0;
#X connect 78 0 79 0;
#X connect 78 1 83 0;
#X connect 79 0 6 0;
#X connect 79 0 6 1;
#X connect 80 0 79 1;
#X connect 81 0 78 0;
#X connect 82 0 84 0;
#X connect 83 0 82 0;
#X connect 84 0 78 0;
